<svg width="24" height="25" viewBox="0 0 24 25" fill="none" xmlns="http://www.w3.org/2000/svg">
<path d="M11.5 20.7944H5.5C5.23478 20.7944 4.98043 20.6891 4.79289 20.5015C4.60536 20.314 4.5 20.0597 4.5 19.7944V5.79443C4.5 5.52922 4.60536 5.27486 4.79289 5.08733C4.98043 4.89979 5.23478 4.79443 5.5 4.79443H10.5V7.79443C10.5 8.59008 10.8161 9.35315 11.3787 9.91575C11.9413 10.4784 12.7044 10.7944 13.5 10.7944H16.5V15.7944C16.5 16.0597 16.6054 16.314 16.7929 16.5015C16.9804 16.6891 17.2348 16.7944 17.5 16.7944C17.7652 16.7944 18.0196 16.6891 18.2071 16.5015C18.3946 16.314 18.5 16.0597 18.5 15.7944V9.79443C18.5 9.79443 18.5 9.79443 18.5 9.73443C18.4896 9.64257 18.4695 9.55206 18.44 9.46443V9.37443C18.3919 9.27161 18.3278 9.1771 18.25 9.09443L12.25 3.09443C12.1673 3.01665 12.0728 2.95251 11.97 2.90443C11.9369 2.89864 11.9031 2.89864 11.87 2.90443C11.7728 2.85244 11.6683 2.81536 11.56 2.79443H5.5C4.70435 2.79443 3.94129 3.1105 3.37868 3.67311C2.81607 4.23572 2.5 4.99878 2.5 5.79443V19.7944C2.5 20.5901 2.81607 21.3531 3.37868 21.9158C3.94129 22.4784 4.70435 22.7944 5.5 22.7944H11.5C11.7652 22.7944 12.0196 22.6891 12.2071 22.5015C12.3946 22.314 12.5 22.0597 12.5 21.7944C12.5 21.5292 12.3946 21.2749 12.2071 21.0873C12.0196 20.8998 11.7652 20.7944 11.5 20.7944ZM12.5 6.20443L15.09 8.79443H13.5C13.2348 8.79443 12.9804 8.68908 12.7929 8.50154C12.6054 8.314 12.5 8.05965 12.5 7.79443V6.20443ZM7.5 14.7944H13.5C13.7652 14.7944 14.0196 14.6891 14.2071 14.5015C14.3946 14.314 14.5 14.0597 14.5 13.7944C14.5 13.5292 14.3946 13.2749 14.2071 13.0873C14.0196 12.8998 13.7652 12.7944 13.5 12.7944H7.5C7.23478 12.7944 6.98043 12.8998 6.79289 13.0873C6.60536 13.2749 6.5 13.5292 6.5 13.7944C6.5 14.0597 6.60536 14.314 6.79289 14.5015C6.98043 14.6891 7.23478 14.7944 7.5 14.7944ZM11.5 16.7944H7.5C7.23478 16.7944 6.98043 16.8998 6.79289 17.0873C6.60536 17.2749 6.5 17.5292 6.5 17.7944C6.5 18.0597 6.60536 18.314 6.79289 18.5015C6.98043 18.6891 7.23478 18.7944 7.5 18.7944H11.5C11.7652 18.7944 12.0196 18.6891 12.2071 18.5015C12.3946 18.314 12.5 18.0597 12.5 17.7944C12.5 17.5292 12.3946 17.2749 12.2071 17.0873C12.0196 16.8998 11.7652 16.7944 11.5 16.7944ZM7.5 10.7944H8.5C8.76522 10.7944 9.01957 10.6891 9.20711 10.5015C9.39464 10.314 9.5 10.0596 9.5 9.79443C9.5 9.52922 9.39464 9.27486 9.20711 9.08733C9.01957 8.89979 8.76522 8.79443 8.5 8.79443H7.5C7.23478 8.79443 6.98043 8.89979 6.79289 9.08733C6.60536 9.27486 6.5 9.52922 6.5 9.79443C6.5 10.0596 6.60536 10.314 6.79289 10.5015C6.98043 10.6891 7.23478 10.7944 7.5 10.7944ZM21.21 17.0844C21.117 16.9907 21.0064 16.9163 20.8846 16.8655C20.7627 16.8148 20.632 16.7886 20.5 16.7886C20.368 16.7886 20.2373 16.8148 20.1154 16.8655C19.9936 16.9163 19.883 16.9907 19.79 17.0844L16.5 20.3844L15.21 19.0844C15.1168 18.9912 15.0061 18.9172 14.8842 18.8668C14.7624 18.8163 14.6319 18.7903 14.5 18.7903C14.3681 18.7903 14.2376 18.8163 14.1158 18.8668C13.9939 18.9172 13.8832 18.9912 13.79 19.0844C13.6968 19.1777 13.6228 19.2884 13.5723 19.4102C13.5219 19.532 13.4959 19.6626 13.4959 19.7944C13.4959 19.9263 13.5219 20.0569 13.5723 20.1787C13.6228 20.3005 13.6968 20.4112 13.79 20.5044L15.79 22.5044C15.883 22.5982 15.9936 22.6726 16.1154 22.7233C16.2373 22.7741 16.368 22.8002 16.5 22.8002C16.632 22.8002 16.7627 22.7741 16.8846 22.7233C17.0064 22.6726 17.117 22.5982 17.21 22.5044L21.21 18.5044C21.3037 18.4115 21.3781 18.3009 21.4289 18.179C21.4797 18.0572 21.5058 17.9264 21.5058 17.7944C21.5058 17.6624 21.4797 17.5317 21.4289 17.4099C21.3781 17.288 21.3037 17.1774 21.21 17.0844Z" fill="black"/>
</svg>
