<svg width="146" height="62" viewBox="0 0 146 62" fill="none" xmlns="http://www.w3.org/2000/svg">
<g clip-path="url(#clip0_3750_173)">
<path fill-rule="evenodd" clip-rule="evenodd" d="M40.6472 0.582505H40.644H36.2522C36.2522 0.582505 31.5274 0.231995 28.0995 6.13202C24.6734 12.0319 20.6968 18.8778 20.6968 18.8778C20.6968 18.8778 16.7217 12.0318 13.2938 6.13202C9.86761 0.232119 5.14125 0.582505 5.14125 0.582505H0.750848C0.176325 0.582505 -0.176828 1.20055 0.0914393 1.69469L20.0401 36.0416C20.1681 36.2731 20.4142 36.4296 20.6968 36.4296C20.9821 36.4296 21.2317 36.2699 21.3579 36.0347L41.269 1.75422C41.5972 1.26319 41.2515 0.584118 40.6472 0.582505Z" fill="#1CBBEE"/>
<path fill-rule="evenodd" clip-rule="evenodd" d="M114.676 0.582505H110.283C110.283 0.582505 105.557 0.231995 102.13 6.13202C98.7025 12.0319 94.7273 18.8778 94.7273 18.8778C94.7273 18.8778 90.7503 12.0318 87.3244 6.13202C83.8969 0.232119 79.1719 0.582505 79.1719 0.582505H74.7816C74.2071 0.582505 73.852 1.20055 74.1201 1.69469L94.0693 36.0416C94.1987 36.2731 94.4447 36.4296 94.7273 36.4296C95.0129 36.4296 95.2605 36.2699 95.3885 36.0347L115.298 1.75422C115.628 1.26319 115.281 0.584118 114.676 0.582505Z" fill="#1CBBEE"/>
<path fill-rule="evenodd" clip-rule="evenodd" d="M57.7129 0.000183105C67.9088 0.000183105 76.1751 8.28544 76.1751 18.506C76.1751 20.2101 75.9447 21.8601 75.5139 23.4274H48.9797C50.6966 26.4836 53.9634 28.5479 57.7129 28.5479C60.2947 28.5479 62.6475 27.5688 64.4244 25.9608L69.8689 32.4329C66.6226 35.284 62.3681 37.012 57.7129 37.012C47.5166 37.012 39.2506 28.7265 39.2506 18.506C39.2506 8.28557 47.5165 0.000183105 57.7129 0.000183105ZM48.162 15.4653H67.2635C65.9773 11.4058 62.1883 8.46429 57.7128 8.46429C53.2371 8.46429 49.4482 11.4058 48.1619 15.4653H48.162Z" fill="#1CBBEE"/>
<path d="M20.0277 45.5804V50.9981H21.0219V49.0846H21.8994C22.551 49.0846 23.034 48.9159 23.3544 48.5861C23.6842 48.2561 23.845 47.8382 23.845 47.3471C23.845 46.8558 23.6919 46.4454 23.3765 46.1007C23.0625 45.7561 22.6016 45.5804 21.9799 45.5804H20.0277ZM21.0219 48.1682V46.5114H22.002C22.521 46.5114 22.8286 46.8707 22.8286 47.3323C22.8286 47.794 22.5132 48.168 21.9292 48.168H21.0219V48.1682ZM28.0539 51.0934C28.6601 51.0934 29.1586 50.9172 29.5453 50.573C29.9333 50.2211 30.1307 49.7152 30.1307 49.0554V45.5804H29.1207V48.9674C29.1207 49.7079 28.7041 50.1184 28.0539 50.1184C27.3879 50.1184 26.9855 49.7224 26.9855 48.9674V45.5804H25.9834V49.0554C25.9834 49.7152 26.1806 50.2211 26.5689 50.573C26.9572 50.9172 27.4543 51.0934 28.0539 51.0934ZM36.7525 50.9981L35.392 48.85C36.1447 48.608 36.5253 47.9774 36.5253 47.2738C36.5253 46.7974 36.3721 46.4013 36.0582 46.0713C35.7439 45.7415 35.2976 45.5803 34.712 45.5803H32.7015V50.9979H33.6958V48.9673H34.3616L35.5674 50.9979H36.7527L36.7525 50.9981ZM34.7119 46.5114C35.2091 46.5114 35.5026 46.8485 35.5026 47.281C35.5026 47.7208 35.2091 48.0653 34.6029 48.0653H33.6956V46.5112H34.7119V46.5114ZM38.9713 50.9981H39.9731V45.5804H38.9713V50.9981ZM43.6046 50.9981V48.7913H45.8282V47.8381H43.6046V46.5334H46.1421V45.5804H42.6087V50.9981H43.6046ZM48.3609 50.9981H49.363V45.5804H48.3609V50.9981ZM55.5901 50.9981V50.0595H53.0006V48.7254H55.3929V47.7941H53.0006V46.5186H55.5901V45.5805H51.9983V50.9982H55.5901V50.9981ZM60.0407 50.9981C60.8517 50.9981 61.4953 50.7559 61.9563 50.2721C62.4234 49.7884 62.6587 49.1284 62.6587 48.3003C62.6587 47.4568 62.4313 46.7974 61.9704 46.3133C61.5096 45.8221 60.8816 45.5803 60.083 45.5803H57.9983V50.9979H60.0407V50.9981ZM58.9941 46.5405H60.083C60.574 46.5405 60.9462 46.7092 61.2178 47.0391C61.4875 47.3693 61.6203 47.7797 61.6203 48.2782C61.6203 48.784 61.4812 49.2093 61.2098 49.5393C60.9401 49.869 60.5659 50.0378 60.0767 50.0378H58.9941V46.5405ZM68.6883 50.9981L69.8942 47.3323L71.1156 50.9981H71.9062L73.7052 45.5804H72.6147L71.4957 49.2973L70.194 45.5804H69.5879L68.3144 49.2973L67.1734 45.5804H66.0847L67.8897 50.9981H68.6882H68.6883ZM79.8298 50.9981L77.7593 45.5804H76.9925L74.8996 50.9981H75.9603L76.4068 49.7664H78.3228L78.7694 50.9981H79.8298ZM78.0386 48.8646H76.699L77.3726 47.0098L78.0387 48.8646H78.0386ZM82.4511 50.9981H83.4612V46.5481H85.0189V45.5804H80.8936V46.5481H82.4511V50.9981ZM90.7267 50.9981V50.0595H88.137V48.7254H90.5295V47.7941H88.137V46.5186H90.7267V45.5805H87.1349V50.9982H90.7267V50.9981ZM97.1875 50.9981L95.8273 48.85C96.58 48.608 96.9601 47.9774 96.9601 47.2738C96.9601 46.7974 96.8073 46.4013 96.4932 46.0713C96.1776 45.7415 95.7326 45.5803 95.1469 45.5803H93.1348V50.9979H94.1307V48.9673H94.7951L96.0026 50.9979H97.1878L97.1875 50.9981ZM95.1468 46.5114C95.644 46.5114 95.9375 46.8485 95.9375 47.281C95.9375 47.7208 95.644 48.0653 95.0363 48.0653H94.1305V46.5112H95.1468V46.5114Z" fill="#67C2C7"/>
<path fill-rule="evenodd" clip-rule="evenodd" d="M112.684 40.2621C111.428 40.8549 110.055 41.2022 108.531 41.1898L102.888 41.1924C103.164 52.7311 112.582 61.9999 124.159 61.9999C135.706 61.9999 145.156 52.765 145.432 41.1924L139.79 41.1898C138.266 41.2022 136.893 40.8549 135.636 40.2621C135.867 46.7731 130.664 52.1812 124.16 52.1812C117.669 52.1812 112.453 46.7659 112.684 40.2621H112.684Z" fill="#67C2C7"/>
<path fill-rule="evenodd" clip-rule="evenodd" d="M124.161 0.578156C123.878 0.578156 123.63 0.73493 123.503 0.966248L105.971 30.8525C104.996 32.5114 104.111 34.2229 103.557 36.0795L108.57 36.0822C111.589 36.0822 114.371 34.74 115.89 32.1038L124.16 18.1306L132.431 32.1038C133.949 34.74 136.73 36.0822 139.749 36.0822L144.764 36.0795C144.21 34.2229 143.325 32.5112 142.348 30.8525L124.817 0.966248C124.689 0.734806 124.443 0.578156 124.16 0.578156H124.161Z" fill="#1CBBEE"/>
</g>
<defs>
<clipPath id="clip0_3750_173">
<rect width="145.432" height="62" fill="white"/>
</clipPath>
</defs>
</svg>
