<?xml version="1.0" standalone="no"?>
<svg xmlns:xlink="http://www.w3.org/1999/xlink" id="wave" style="transform:rotate(180deg); transition: 0.3s" viewBox="0 0 1440 490" version="1.1" xmlns="http://www.w3.org/2000/svg"><defs><linearGradient id="sw-gradient-0" x1="0" x2="0" y1="1" y2="0"><stop stop-color="rgba(242, 244, 247, 1)" offset="0%"/><stop stop-color="rgba(242, 244, 247, 1)" offset="100%"/></linearGradient></defs><path style="transform:translate(0, 0px); opacity:1" fill="url(#sw-gradient-0)" d="M0,294L60,310.3C120,327,240,359,360,359.3C480,359,600,327,720,261.3C840,196,960,98,1080,89.8C1200,82,1320,163,1440,228.7C1560,294,1680,343,1800,343C1920,343,2040,294,2160,294C2280,294,2400,343,2520,351.2C2640,359,2760,327,2880,326.7C3000,327,3120,359,3240,359.3C3360,359,3480,327,3600,334.8C3720,343,3840,392,3960,400.2C4080,408,4200,376,4320,310.3C4440,245,4560,147,4680,114.3C4800,82,4920,114,5040,171.5C5160,229,5280,310,5400,310.3C5520,310,5640,229,5760,179.7C5880,131,6000,114,6120,98C6240,82,6360,65,6480,65.3C6600,65,6720,82,6840,147C6960,212,7080,327,7200,359.3C7320,392,7440,343,7560,318.5C7680,294,7800,294,7920,318.5C8040,343,8160,392,8280,367.5C8400,343,8520,245,8580,196L8640,147L8640,490L8580,490C8520,490,8400,490,8280,490C8160,490,8040,490,7920,490C7800,490,7680,490,7560,490C7440,490,7320,490,7200,490C7080,490,6960,490,6840,490C6720,490,6600,490,6480,490C6360,490,6240,490,6120,490C6000,490,5880,490,5760,490C5640,490,5520,490,5400,490C5280,490,5160,490,5040,490C4920,490,4800,490,4680,490C4560,490,4440,490,4320,490C4200,490,4080,490,3960,490C3840,490,3720,490,3600,490C3480,490,3360,490,3240,490C3120,490,3000,490,2880,490C2760,490,2640,490,2520,490C2400,490,2280,490,2160,490C2040,490,1920,490,1800,490C1680,490,1560,490,1440,490C1320,490,1200,490,1080,490C960,490,840,490,720,490C600,490,480,490,360,490C240,490,120,490,60,490L0,490Z"/></svg>