<svg width="25" height="24" viewBox="0 0 25 24" fill="none" xmlns="http://www.w3.org/2000/svg">
<g id="bars / 24 / Outline">
<path id="Vector" d="M3.01884 8H21.0188C21.2841 8 21.5384 7.89464 21.726 7.70711C21.9135 7.51957 22.0188 7.26522 22.0188 7C22.0188 6.73478 21.9135 6.48043 21.726 6.29289C21.5384 6.10536 21.2841 6 21.0188 6H3.01884C2.75363 6 2.49927 6.10536 2.31174 6.29289C2.1242 6.48043 2.01884 6.73478 2.01884 7C2.01884 7.26522 2.1242 7.51957 2.31174 7.70711C2.49927 7.89464 2.75363 8 3.01884 8ZM21.0188 16H3.01884C2.75363 16 2.49927 16.1054 2.31174 16.2929C2.1242 16.4804 2.01884 16.7348 2.01884 17C2.01884 17.2652 2.1242 17.5196 2.31174 17.7071C2.49927 17.8946 2.75363 18 3.01884 18H21.0188C21.2841 18 21.5384 17.8946 21.726 17.7071C21.9135 17.5196 22.0188 17.2652 22.0188 17C22.0188 16.7348 21.9135 16.4804 21.726 16.2929C21.5384 16.1054 21.2841 16 21.0188 16ZM21.0188 11H3.01884C2.75363 11 2.49927 11.1054 2.31174 11.2929C2.1242 11.4804 2.01884 11.7348 2.01884 12C2.01884 12.2652 2.1242 12.5196 2.31174 12.7071C2.49927 12.8946 2.75363 13 3.01884 13H21.0188C21.2841 13 21.5384 12.8946 21.726 12.7071C21.9135 12.5196 22.0188 12.2652 22.0188 12C22.0188 11.7348 21.9135 11.4804 21.726 11.2929C21.5384 11.1054 21.2841 11 21.0188 11Z" fill="black"/>
</g>
</svg>
