<svg width="52" height="53" viewBox="0 0 52 53" fill="none" xmlns="http://www.w3.org/2000/svg">
<circle cx="26" cy="26.2804" r="25.5" stroke="#98A2B3"/>
<g clip-path="url(#clip0_29_174)">
<path d="M36.9784 21.7485C36.9268 20.5795 36.7378 19.7759 36.467 19.0795C36.1877 18.3403 35.7579 17.6786 35.1948 17.1284C34.6447 16.5697 33.9786 16.1356 33.2479 15.8606C32.5476 15.5898 31.7481 15.4008 30.5792 15.3492C29.4015 15.2933 29.0276 15.2804 26.0407 15.2804C23.0538 15.2804 22.6799 15.2933 21.5066 15.3449C20.3377 15.3964 19.534 15.5856 18.8379 15.8562C18.0985 16.1356 17.4367 16.5653 16.8866 17.1284C16.3279 17.6786 15.8939 18.3447 15.6188 19.0753C15.348 19.7759 15.1589 20.5751 15.1074 21.7441C15.0515 22.9218 15.0386 23.2956 15.0386 26.2825C15.0386 29.2695 15.0515 29.6433 15.103 30.8166C15.1546 31.9856 15.3438 32.7892 15.6146 33.4856C15.8939 34.2248 16.3279 34.8865 16.8866 35.4367C17.4367 35.9954 18.1029 36.4295 18.8335 36.7045C19.534 36.9753 20.3333 37.1643 21.5024 37.2159C22.6756 37.2676 23.0496 37.2803 26.0365 37.2803C29.0234 37.2803 29.3973 37.2676 30.5706 37.2159C31.7395 37.1643 32.5432 36.9753 33.2394 36.7045C34.7179 36.1329 35.8868 34.9639 36.4585 33.4856C36.7291 32.785 36.9183 31.9856 36.9698 30.8166C37.0214 29.6433 37.0343 29.2695 37.0343 26.2825C37.0343 23.2956 37.0299 22.9218 36.9784 21.7485ZM34.9972 30.7307C34.9499 31.8051 34.7694 32.3853 34.619 32.7721C34.2493 33.7305 33.4887 34.4912 32.5303 34.8608C32.1435 35.0113 31.5591 35.1917 30.4888 35.2389C29.3285 35.2906 28.9804 35.3034 26.0451 35.3034C23.1097 35.3034 22.7573 35.2906 21.6011 35.2389C20.5267 35.1917 19.9465 35.0113 19.5597 34.8608C19.0828 34.6846 18.6487 34.4052 18.2963 34.0399C17.931 33.6832 17.6516 33.2534 17.4753 32.7765C17.3249 32.3897 17.1445 31.8051 17.0973 30.735C17.0456 29.5747 17.0328 29.2265 17.0328 26.2911C17.0328 23.3557 17.0456 23.0034 17.0973 21.8473C17.1445 20.7729 17.3249 20.1927 17.4753 19.8059C17.6516 19.3288 17.931 18.8948 18.3006 18.5423C18.6572 18.177 19.087 17.8976 19.5641 17.7215C19.9509 17.5711 20.5354 17.3906 21.6055 17.3433C22.7659 17.2918 23.1141 17.2788 26.0493 17.2788C28.989 17.2788 29.337 17.2918 30.4932 17.3433C31.5676 17.3906 32.1478 17.5711 32.5346 17.7215C33.0116 17.8976 33.4457 18.177 33.7981 18.5423C34.1634 18.899 34.4427 19.3288 34.619 19.8059C34.7694 20.1927 34.9499 20.7771 34.9972 21.8473C35.0488 23.0077 35.0617 23.3557 35.0617 26.2911C35.0617 29.2265 35.0488 29.5703 34.9972 30.7307Z" fill="#98A2B3"/>
<path d="M26.0408 20.631C22.9207 20.631 20.3893 23.1623 20.3893 26.2825C20.3893 29.4027 22.9207 31.934 26.0408 31.934C29.161 31.934 31.6923 29.4027 31.6923 26.2825C31.6923 23.1623 29.161 20.631 26.0408 20.631ZM26.0408 29.9485C24.0167 29.9485 22.3748 28.3068 22.3748 26.2825C22.3748 24.2582 24.0167 22.6165 26.0408 22.6165C28.0651 22.6165 29.7068 24.2582 29.7068 26.2825C29.7068 28.3068 28.0651 29.9485 26.0408 29.9485Z" fill="#98A2B3"/>
<path d="M33.2352 20.4076C33.2352 21.1362 32.6444 21.727 31.9157 21.727C31.1871 21.727 30.5963 21.1362 30.5963 20.4076C30.5963 19.6789 31.1871 19.0883 31.9157 19.0883C32.6444 19.0883 33.2352 19.6789 33.2352 20.4076Z" fill="#98A2B3"/>
</g>
<defs>
<clipPath id="clip0_29_174">
<rect width="22" height="22" fill="white" transform="translate(15 15.2804)"/>
</clipPath>
</defs>
</svg>
