<svg width="25" height="24" viewBox="0 0 25 24" fill="none" xmlns="http://www.w3.org/2000/svg">
<g id="profile / 24 / Outline">
<path id="Vector" d="M12.9811 2C11.0416 2.00369 9.14501 2.57131 7.52236 3.63374C5.8997 4.69617 4.62102 6.20754 3.84207 7.98377C3.06311 9.76 2.8175 11.7244 3.13515 13.6378C3.4528 15.5511 4.32001 17.3308 5.63113 18.76C6.56755 19.775 7.70407 20.5851 8.96907 21.1392C10.2341 21.6933 11.6001 21.9793 12.9811 21.9793C14.3621 21.9793 15.7282 21.6933 16.9932 21.1392C18.2582 20.5851 19.3947 19.775 20.3311 18.76C21.6423 17.3308 22.5095 15.5511 22.8271 13.6378C23.1448 11.7244 22.8991 9.76 22.1202 7.98377C21.3412 6.20754 20.0626 4.69617 18.4399 3.63374C16.8172 2.57131 14.9206 2.00369 12.9811 2ZM12.9811 20C10.9096 19.9969 8.92004 19.1903 7.43113 17.75C7.88317 16.6495 8.65216 15.7083 9.64038 15.0459C10.6286 14.3835 11.7914 14.0298 12.9811 14.0298C14.1708 14.0298 15.3337 14.3835 16.3219 15.0459C17.3101 15.7083 18.0791 16.6495 18.5311 17.75C17.0422 19.1903 15.0527 19.9969 12.9811 20ZM10.9811 10C10.9811 9.60444 11.0984 9.21776 11.3182 8.88886C11.538 8.55996 11.8503 8.30362 12.2158 8.15224C12.5812 8.00087 12.9833 7.96126 13.3713 8.03843C13.7593 8.1156 14.1156 8.30608 14.3953 8.58579C14.675 8.86549 14.8655 9.22186 14.9427 9.60982C15.0199 9.99778 14.9803 10.3999 14.8289 10.7654C14.6775 11.1308 14.4212 11.4432 14.0923 11.6629C13.7634 11.8827 13.3767 12 12.9811 12C12.4507 12 11.942 11.7893 11.5669 11.4142C11.1918 11.0391 10.9811 10.5304 10.9811 10ZM19.8911 16C18.9977 14.4718 17.6225 13.283 15.9811 12.62C16.4903 12.0427 16.8221 11.3307 16.9366 10.5694C17.0511 9.80822 16.9436 9.03011 16.6269 8.3285C16.3102 7.62688 15.7977 7.03156 15.151 6.61397C14.5044 6.19637 13.7509 5.97425 12.9811 5.97425C12.2113 5.97425 11.4579 6.19637 10.8112 6.61397C10.1645 7.03156 9.6521 7.62688 9.33538 8.3285C9.01866 9.03011 8.91111 9.80822 9.02566 10.5694C9.1402 11.3307 9.47196 12.0427 9.98113 12.62C8.33973 13.283 6.9646 14.4718 6.07113 16C5.35907 14.7871 4.98285 13.4065 4.98113 12C4.98113 9.87827 5.82398 7.84344 7.32427 6.34315C8.82456 4.84285 10.8594 4 12.9811 4C15.1029 4 17.1377 4.84285 18.638 6.34315C20.1383 7.84344 20.9811 9.87827 20.9811 12C20.9794 13.4065 20.6032 14.7871 19.8911 16Z" fill="black"/>
</g>
</svg>
