<svg width="22" height="22" viewBox="0 0 22 22" fill="none" xmlns="http://www.w3.org/2000/svg">
<path d="M11 12.083L16.5038 17.5955C16.6685 17.7603 16.892 17.8528 17.125 17.8528C17.358 17.8528 17.5815 17.7603 17.7463 17.5955C17.911 17.4307 18.0036 17.2073 18.0036 16.9743C18.0036 16.7412 17.911 16.5178 17.7463 16.353L12.2338 10.8493L17.7463 5.3455C17.911 5.18074 18.0036 4.95726 18.0036 4.72425C18.0036 4.49124 17.911 4.26777 17.7463 4.103C17.5815 3.93823 17.358 3.84567 17.125 3.84567C16.892 3.84567 16.6685 3.93823 16.5038 4.103L11 9.6155L5.49627 4.103C5.41493 4.02099 5.31815 3.95589 5.21153 3.91147C5.1049 3.86705 4.99053 3.84418 4.87502 3.84418C4.75951 3.84418 4.64514 3.86705 4.53852 3.91147C4.43189 3.95589 4.33511 4.02099 4.25377 4.103C4.17176 4.18434 4.10666 4.28112 4.06224 4.38775C4.01782 4.49437 3.99495 4.60874 3.99495 4.72425C3.99495 4.83976 4.01782 4.95413 4.06224 5.06075C4.10666 5.16738 4.17176 5.26416 4.25377 5.3455L9.76627 10.8493L4.25377 16.353C4.17176 16.4343 4.10666 16.5311 4.06224 16.6377C4.01782 16.7444 3.99495 16.8587 3.99495 16.9743C3.99495 17.0898 4.01782 17.2041 4.06224 17.3108C4.10666 17.4174 4.17176 17.5142 4.25377 17.5955C4.33511 17.6775 4.43189 17.7426 4.53852 17.787C4.64514 17.8315 4.75951 17.8543 4.87502 17.8543C4.99053 17.8543 5.1049 17.8315 5.21153 17.787C5.31815 17.7426 5.41493 17.6775 5.49627 17.5955L11 12.083Z" fill="black"/>
</svg>
